<svg xmlns="http://www.w3.org/2000/svg" width="512" height="512" viewBox="0 0 512 512">
  <rect width="512" height="512" rx="80" fill="#0f1319"/>
  <rect x="40" y="40" width="432" height="432" rx="60" fill="#171c25" stroke="#2c3345" stroke-width="4"/>
  <!-- Calculator body -->
  <rect x="120" y="100" width="272" height="340" rx="20" fill="#1d2330" stroke="#e8a020" stroke-width="3"/>
  <!-- Display -->
  <rect x="145" y="125" width="222" height="60" rx="8" fill="#141820" stroke="#2c3345" stroke-width="2"/>
  <text x="348" y="168" font-family="monospace" font-size="36" font-weight="bold" fill="#e8a020" text-anchor="end">12.50</text>
  <!-- Row 1 -->
  <rect x="145" y="210" width="48" height="40" rx="6" fill="#2c3345"/><text x="169" y="237" font-family="sans-serif" font-size="18" fill="#d4dae6" text-anchor="middle">7</text>
  <rect x="205" y="210" width="48" height="40" rx="6" fill="#2c3345"/><text x="229" y="237" font-family="sans-serif" font-size="18" fill="#d4dae6" text-anchor="middle">8</text>
  <rect x="265" y="210" width="48" height="40" rx="6" fill="#2c3345"/><text x="289" y="237" font-family="sans-serif" font-size="18" fill="#d4dae6" text-anchor="middle">9</text>
  <rect x="325" y="210" width="42" height="40" rx="6" fill="#c0392b"/><text x="346" y="237" font-family="sans-serif" font-size="16" fill="#fff" text-anchor="middle">C</text>
  <!-- Row 2 -->
  <rect x="145" y="262" width="48" height="40" rx="6" fill="#2c3345"/><text x="169" y="289" font-family="sans-serif" font-size="18" fill="#d4dae6" text-anchor="middle">4</text>
  <rect x="205" y="262" width="48" height="40" rx="6" fill="#2c3345"/><text x="229" y="289" font-family="sans-serif" font-size="18" fill="#d4dae6" text-anchor="middle">5</text>
  <rect x="265" y="262" width="48" height="40" rx="6" fill="#2c3345"/><text x="289" y="289" font-family="sans-serif" font-size="18" fill="#d4dae6" text-anchor="middle">6</text>
  <rect x="325" y="262" width="42" height="40" rx="6" fill="#e8a020"/><text x="346" y="289" font-family="sans-serif" font-size="20" fill="#0f1319" text-anchor="middle">+</text>
  <!-- Row 3 -->
  <rect x="145" y="314" width="48" height="40" rx="6" fill="#2c3345"/><text x="169" y="341" font-family="sans-serif" font-size="18" fill="#d4dae6" text-anchor="middle">1</text>
  <rect x="205" y="314" width="48" height="40" rx="6" fill="#2c3345"/><text x="229" y="341" font-family="sans-serif" font-size="18" fill="#d4dae6" text-anchor="middle">2</text>
  <rect x="265" y="314" width="48" height="40" rx="6" fill="#2c3345"/><text x="289" y="341" font-family="sans-serif" font-size="18" fill="#d4dae6" text-anchor="middle">3</text>
  <rect x="325" y="314" width="42" height="40" rx="6" fill="#e8a020"/><text x="346" y="341" font-family="sans-serif" font-size="20" fill="#0f1319" text-anchor="middle">=</text>
  <!-- Row 4 -->
  <rect x="145" y="366" width="108" height="40" rx="6" fill="#2c3345"/><text x="199" y="393" font-family="sans-serif" font-size="18" fill="#d4dae6" text-anchor="middle">0</text>
  <rect x="265" y="366" width="48" height="40" rx="6" fill="#2c3345"/><text x="289" y="393" font-family="sans-serif" font-size="18" fill="#d4dae6" text-anchor="middle">.</text>
  <rect x="325" y="366" width="42" height="40" rx="6" fill="#3d8ef0"/><text x="346" y="389" font-family="sans-serif" font-size="14" fill="#fff" text-anchor="middle">FT</text>
</svg>
